<?xml version="1.0" encoding="UTF-8"?>
<svg id="Layer_2" data-name="Layer 2" xmlns="http://www.w3.org/2000/svg" xmlns:xlink="http://www.w3.org/1999/xlink" viewBox="0 0 360 100.1">
  <defs>
    <style>
      .cls-1 {
        fill: url(#linear-gradient-2);
      }

      .cls-2 {
        fill: url(#linear-gradient-17);
      }

      .cls-3 {
        fill: url(#linear-gradient-15);
      }

      .cls-4 {
        fill: url(#linear-gradient-18);
      }

      .cls-5 {
        fill: url(#linear-gradient-28);
      }

      .cls-6 {
        fill: url(#linear-gradient-14);
      }

      .cls-7 {
        fill: url(#linear-gradient-36);
      }

      .cls-8 {
        fill: url(#linear-gradient-20);
      }

      .cls-9 {
        fill: url(#linear-gradient-6);
      }

      .cls-10 {
        fill: url(#linear-gradient-35);
      }

      .cls-11 {
        fill: url(#linear-gradient-32);
      }

      .cls-12 {
        fill: url(#linear-gradient-11);
      }

      .cls-13 {
        fill: url(#linear-gradient-10);
      }

      .cls-14 {
        fill: url(#linear-gradient-37);
      }

      .cls-15 {
        fill: url(#linear-gradient-16);
      }

      .cls-16 {
        fill: url(#linear-gradient-31);
      }

      .cls-17 {
        fill: url(#linear-gradient-21);
      }

      .cls-18 {
        fill: url(#linear-gradient-25);
      }

      .cls-19 {
        fill: url(#linear-gradient-5);
      }

      .cls-20 {
        fill: url(#linear-gradient-34);
      }

      .cls-21 {
        fill: url(#linear-gradient-7);
      }

      .cls-22 {
        fill: url(#linear-gradient-24);
      }

      .cls-23 {
        fill: url(#linear-gradient-9);
      }

      .cls-24 {
        fill: url(#linear-gradient-22);
      }

      .cls-25 {
        fill: url(#linear-gradient-3);
      }

      .cls-26 {
        fill: url(#linear-gradient);
      }

      .cls-27 {
        fill: url(#linear-gradient-27);
      }

      .cls-28 {
        fill: url(#linear-gradient-33);
      }

      .cls-29 {
        fill: url(#linear-gradient-29);
      }

      .cls-30 {
        fill: url(#linear-gradient-30);
      }

      .cls-31 {
        fill: url(#linear-gradient-23);
      }

      .cls-32 {
        fill: url(#linear-gradient-19);
      }

      .cls-33 {
        fill: url(#linear-gradient-4);
      }

      .cls-34 {
        fill: url(#linear-gradient-8);
      }

      .cls-35 {
        fill: url(#linear-gradient-12);
      }

      .cls-36 {
        fill: url(#linear-gradient-13);
      }

      .cls-37 {
        fill: url(#linear-gradient-26);
      }
    </style>
    <linearGradient id="linear-gradient" x1="0" y1="50.05" x2="77.85" y2="50.05" gradientUnits="userSpaceOnUse">
      <stop offset="0" stop-color="#37acd9"/>
      <stop offset=".17" stop-color="#23c9c7"/>
      <stop offset=".34" stop-color="#13e1ba"/>
      <stop offset=".53" stop-color="#08f1b0"/>
      <stop offset=".74" stop-color="#02fbaa"/>
      <stop offset="1" stop-color="#00ffa9"/>
    </linearGradient>
    <linearGradient id="linear-gradient-2" x1="7.15" y1="13.34" x2="64.29" y2="46.43" gradientUnits="userSpaceOnUse">
      <stop offset="0" stop-color="#bb55ba"/>
      <stop offset=".17" stop-color="#af5cbd"/>
      <stop offset=".46" stop-color="#9070c5"/>
      <stop offset=".86" stop-color="#5d91d2"/>
      <stop offset="1" stop-color="#4a9ed8"/>
    </linearGradient>
    <linearGradient id="linear-gradient-3" x1="-1.37" y1="50.05" x2="74.37" y2="50.05" gradientUnits="userSpaceOnUse">
      <stop offset="0" stop-color="#37acd9"/>
      <stop offset=".28" stop-color="#20cdc5"/>
      <stop offset=".56" stop-color="#0ee8b5"/>
      <stop offset=".81" stop-color="#03f9ac"/>
      <stop offset="1" stop-color="#00ffa9"/>
    </linearGradient>
    <linearGradient id="linear-gradient-4" x1="111.52" y1="70.82" x2="111.52" y2="31.94" xlink:href="#linear-gradient"/>
    <linearGradient id="linear-gradient-5" x1="131.79" y1="70.82" x2="131.79" y2="31.94" xlink:href="#linear-gradient"/>
    <linearGradient id="linear-gradient-6" x1="157.44" y1="70.82" x2="157.44" y2="31.94" xlink:href="#linear-gradient"/>
    <linearGradient id="linear-gradient-7" x1="183.24" y1="70.82" x2="183.24" y2="31.94" xlink:href="#linear-gradient"/>
    <linearGradient id="linear-gradient-8" x1="201.41" y1="70.82" x2="201.41" y2="31.94" xlink:href="#linear-gradient"/>
    <linearGradient id="linear-gradient-9" x1="229.52" y1="70.82" x2="229.52" y2="31.94" xlink:href="#linear-gradient"/>
    <linearGradient id="linear-gradient-10" x1="254.77" y1="70.82" x2="254.77" y2="31.94" xlink:href="#linear-gradient"/>
    <linearGradient id="linear-gradient-11" x1="281.71" y1="70.82" x2="281.71" y2="31.94" xlink:href="#linear-gradient"/>
    <linearGradient id="linear-gradient-12" x1="304.52" y1="70.82" x2="304.52" y2="31.94" xlink:href="#linear-gradient"/>
    <linearGradient id="linear-gradient-13" x1="328.28" y1="70.82" x2="328.28" y2="31.94" xlink:href="#linear-gradient"/>
    <linearGradient id="linear-gradient-14" x1="351.09" y1="70.82" x2="351.09" y2="31.94" xlink:href="#linear-gradient"/>
    <linearGradient id="linear-gradient-15" x1="103.48" y1="53.54" x2="119.54" y2="53.54" gradientUnits="userSpaceOnUse">
      <stop offset="0" stop-color="#37acd9"/>
      <stop offset=".2" stop-color="#27c2cb"/>
      <stop offset=".53" stop-color="#12e3b8"/>
      <stop offset=".81" stop-color="#04f7ad"/>
      <stop offset="1" stop-color="#00ffa9"/>
    </linearGradient>
    <linearGradient id="linear-gradient-16" x1="104.04" y1="41.71" x2="119.56" y2="41.71" xlink:href="#linear-gradient-15"/>
    <linearGradient id="linear-gradient-17" x1="120.08" y1="52.99" x2="143.5" y2="52.99" xlink:href="#linear-gradient-15"/>
    <linearGradient id="linear-gradient-18" x1="147.08" y1="53.03" x2="161.57" y2="53.03" xlink:href="#linear-gradient-15"/>
    <linearGradient id="linear-gradient-19" x1="162.68" y1="53.03" x2="167.8" y2="53.03" xlink:href="#linear-gradient-15"/>
    <linearGradient id="linear-gradient-20" x1="172.88" y1="53.03" x2="187.37" y2="53.03" xlink:href="#linear-gradient-15"/>
    <linearGradient id="linear-gradient-21" x1="188.49" y1="53.03" x2="193.61" y2="53.03" xlink:href="#linear-gradient-15"/>
    <linearGradient id="linear-gradient-22" x1="198.69" y1="53.05" x2="204.13" y2="53.05" xlink:href="#linear-gradient-15"/>
    <linearGradient id="linear-gradient-23" x1="220.29" y1="54.7" x2="225.53" y2="54.7" xlink:href="#linear-gradient-15"/>
    <linearGradient id="linear-gradient-24" x1="221.08" y1="46.62" x2="237.08" y2="46.62" xlink:href="#linear-gradient-15"/>
    <linearGradient id="linear-gradient-25" x1="227.99" y1="59.34" x2="238.75" y2="59.34" xlink:href="#linear-gradient-15"/>
    <linearGradient id="linear-gradient-26" x1="242.28" y1="52.85" x2="256.85" y2="52.85" xlink:href="#linear-gradient-15"/>
    <linearGradient id="linear-gradient-27" x1="251.53" y1="52.85" x2="267.25" y2="52.85" xlink:href="#linear-gradient-15"/>
    <linearGradient id="linear-gradient-28" x1="271.3" y1="54.7" x2="276.23" y2="54.7" xlink:href="#linear-gradient-15"/>
    <linearGradient id="linear-gradient-29" x1="272.14" y1="47.39" x2="288.93" y2="47.39" xlink:href="#linear-gradient-15"/>
    <linearGradient id="linear-gradient-30" x1="282.14" y1="60.63" x2="292.11" y2="60.63" xlink:href="#linear-gradient-15"/>
    <linearGradient id="linear-gradient-31" x1="295.28" y1="54.7" x2="300.53" y2="54.7" xlink:href="#linear-gradient-15"/>
    <linearGradient id="linear-gradient-32" x1="296.08" y1="46.62" x2="312.08" y2="46.62" xlink:href="#linear-gradient-15"/>
    <linearGradient id="linear-gradient-33" x1="302.99" y1="59.34" x2="313.75" y2="59.34" xlink:href="#linear-gradient-15"/>
    <linearGradient id="linear-gradient-34" x1="316.57" y1="52.99" x2="339.99" y2="52.99" xlink:href="#linear-gradient-15"/>
    <linearGradient id="linear-gradient-35" x1="342.17" y1="52.99" x2="360" y2="52.99" xlink:href="#linear-gradient-15"/>
    <linearGradient id="linear-gradient-36" x1="342.61" y1="63.19" x2="351.96" y2="63.19" xlink:href="#linear-gradient-15"/>
    <linearGradient id="linear-gradient-37" x1="350.02" y1="42.75" x2="359.43" y2="42.75" xlink:href="#linear-gradient-15"/>
  </defs>
  <g id="borbasfanni">
    <g>
      <g>
        <path class="cls-26" d="M73.51,44.98l-11.89-7.27c.73,6.52-6.01,9.92-3.77,14.07,.35,1.51-2.13,4.36-4.08,5.6l-33.61,20.35c-1.84,1.17-4.19,.51-4.19-1.68,0,0,0-48.62,.32-48.91C11.51,7.67,0,0,0,0V93.51c0,4.35,8.48,8.22,12.15,5.89l61.15-37.95c5.98-3.81,6.1-12.51,.21-16.47Z"/>
        <path class="cls-1" d="M55.76,51c.07,.05,.53,.24,1.02,.46,0-.12,0-.24-.03-.35-2.32-4.32,4.68-7.28,3.98-14.03,0,0-37.07-22.37-54.65-33.88,9.27,11.83,11.51,23.97,11.51,23.97l38.18,23.84Z"/>
        <path id="csupazold_logo" data-name="csupazold logo" class="cls-25" d="M73.51,44.98l-7.67-4.69s0-.01,0-.02c0,0-1.26-.77-3.44-2.09l-.78-.48s0,0,0,0C50.5,30.94,20.27,12.49,6.07,3.2c9.27,11.83,11.51,23.97,11.51,23.97l38.18,23.84s1.07,.75,2.09,1.45c-.3,1.57-2.39,3.85-4.07,4.93l-33.61,20.35c-1.84,1.17-4.19,.51-4.19-1.68,0,0,0-48.62,.32-48.91C11.51,7.67,0,0,0,0V93.51c0,4.35,8.48,8.22,12.15,5.89l61.15-37.95c5.98-3.81,6.1-12.51,.21-16.47Z"/>
        <path id="logo_zold_also" data-name="logo zold also" class="cls-26" d="M73.51,44.98l-11.89-7.27c.73,6.52-6.01,9.92-3.77,14.07,.35,1.51-2.13,4.36-4.08,5.6l-33.61,20.35c-1.84,1.17-4.19,.51-4.19-1.68,0,0,0-48.62,.32-48.91C11.51,7.67,0,0,0,0V93.51c0,4.35,8.48,8.22,12.15,5.89l61.15-37.95c5.98-3.81,6.1-12.51,.21-16.47Z"/>
        <path id="logo_lila" data-name="logo lila" class="cls-1" d="M55.76,51c.07,.05,.53,.24,1.02,.46,0-.12,0-.24-.03-.35-2.32-4.32,4.68-7.28,3.98-14.03,0,0-37.07-22.37-54.65-33.88,9.27,11.83,11.51,23.97,11.51,23.97l38.18,23.84Z"/>
        <g>
          <path class="cls-33" d="M119.36,50.69c.13,.72,.19,1.48,.18,2.28-.01,.8-.17,1.55-.46,2.24h-10.6v11.12h-5v-25.57c1.99,.84,3.65,2.21,5,4.11v5.81h10.88Zm0-11.08c.26,1.43,.26,2.83,0,4.21h-9.73c-.42-.34-.86-.72-1.31-1.13-.45-.41-.91-.81-1.39-1.19-.48-.38-.96-.74-1.45-1.07-.49-.33-.97-.6-1.45-.81h15.33Z"/>
          <path class="cls-19" d="M137.9,66.37l-1.91-7.07c-.37,.19-.83,.36-1.37,.54-.54,.17-1.13,.26-1.77,.26-.48,0-.9-.05-1.27-.14-.37-.09-.69-.2-.95-.34-.29-.13-.57-.29-.83-.48l.87-3.93c.18,.08,.38,.15,.6,.2,.18,.05,.4,.09,.65,.12,.25,.03,.52,.04,.81,.04,.26,0,.62-.04,1.05-.12,.44-.08,.79-.25,1.05-.52l-3.1-10.56-6.11,22h-5.56l7.23-23.98c.26-.5,.62-.97,1.07-1.39,.37-.34,.83-.66,1.39-.95,.56-.29,1.22-.44,1.99-.44s1.44,.15,2,.44c.57,.29,1.04,.61,1.41,.95,.42,.42,.78,.89,1.07,1.39l7.27,23.98h-5.6Z"/>
          <path class="cls-9" d="M161.57,53.86v11.2l-10.2-20.72,1.39,22.11h-5.68v-24.02c.29-.5,.65-.97,1.07-1.39,.37-.37,.81-.7,1.33-.99,.52-.29,1.14-.44,1.89-.44s1.44,.15,2.01,.44c.57,.29,1.04,.62,1.41,.99,.45,.42,.82,.89,1.11,1.39l5.68,11.43Zm1.11-10.36v22.95h5.12v-23.74c0-.45-.17-.93-.52-1.45-.34-.52-.74-.88-1.19-1.09-.56-.24-1.13-.39-1.71-.46-.58-.07-1.15-.1-1.71-.1v3.89Z"/>
          <path class="cls-21" d="M187.37,53.86v11.2l-10.2-20.72,1.39,22.11h-5.68v-24.02c.29-.5,.65-.97,1.07-1.39,.37-.37,.81-.7,1.33-.99,.52-.29,1.14-.44,1.89-.44s1.44,.15,2.01,.44c.57,.29,1.04,.62,1.41,.99,.45,.42,.82,.89,1.11,1.39l5.68,11.43Zm1.11-10.36v22.95h5.12v-23.74c0-.45-.17-.93-.52-1.45-.34-.52-.74-.88-1.19-1.09-.56-.24-1.13-.39-1.71-.46-.58-.07-1.15-.1-1.71-.1v3.89Z"/>
          <path class="cls-34" d="M204.13,39.69v26.72h-5.44v-23.74c0-1.01,.51-1.75,1.53-2.24,1.02-.49,2.32-.73,3.91-.73Z"/>
          <path class="cls-23" d="M220.29,42.98c1.11,.13,2.09,.45,2.94,.95,.85,.5,1.61,1.1,2.3,1.79v20.69h-5.24v-23.42Zm14.89-1.07c.4,.4,.81,.97,1.25,1.73s.66,1.56,.66,2.4c0,1.11-.19,2.14-.56,3.08-.37,.94-.87,1.75-1.49,2.44-.62,.69-1.35,1.22-2.18,1.61-.83,.38-1.71,.58-2.64,.58-.61,0-1.17-.05-1.69-.16-.52-.11-.79-.24-.81-.4v-4.13c0,.11,.09,.19,.26,.26,.17,.07,.38,.12,.62,.16,.24,.04,.48,.06,.73,.06h.62c.4-.03,.79-.11,1.19-.24,.4-.13,.75-.32,1.07-.58,.32-.25,.57-.56,.75-.93,.19-.37,.28-.81,.28-1.31,0-.95-.4-1.75-1.19-2.38-.79-.64-1.87-.94-3.22-.91-.48,0-1.03,.1-1.67,.3-.64,.2-1.1,.48-1.39,.85l.04,.04c-.56-.56-1.27-1.07-2.14-1.55-.87-.48-1.73-.78-2.58-.91,1.19-.82,2.35-1.43,3.47-1.83,1.12-.4,2.44-.6,3.95-.6,1.19,0,2.36,.19,3.51,.58,1.15,.38,2.2,1,3.16,1.85Zm1.63,11c.56,.56,1.02,1.23,1.39,2.02,.37,.79,.56,1.68,.56,2.66,0,1.16-.2,2.28-.6,3.34-.4,1.06-.95,2-1.67,2.82-.71,.82-1.56,1.47-2.54,1.95-.98,.48-2.04,.71-3.18,.71-.08,0-.26,0-.56-.02-.29-.01-.6-.05-.93-.1-.33-.05-.63-.13-.89-.24-.26-.11-.4-.26-.4-.48v-4.41c.53,.13,1,.21,1.41,.24,.41,.03,.8,.04,1.17,.04,.56,0,1.06-.1,1.51-.3,.45-.2,.84-.47,1.17-.81,.33-.34,.58-.73,.75-1.17,.17-.44,.26-.88,.26-1.33,0-.4-.09-.77-.26-1.13-.17-.36-.39-.68-.65-.95-.26-.28-.56-.5-.87-.68-.32-.17-.62-.26-.91-.26,1.09-.16,2.08-.52,2.98-1.07,.37-.24,.69-.5,.95-.77,.26-.28,.44-.51,.52-.69,.08,.05,.17,.12,.28,.2,.08,.05,.16,.13,.26,.22,.09,.09,.18,.17,.26,.22Z"/>
          <path class="cls-13" d="M247.6,52.87c0,1.59,.23,3.1,.69,4.55,.46,1.44,1.1,2.75,1.93,3.91,.82,1.17,1.8,2.17,2.94,3.02,1.14,.85,2.37,1.48,3.69,1.91h-1.67c-1.83,0-3.53-.34-5.1-1.03-1.57-.69-2.94-1.63-4.09-2.84-1.15-1.2-2.06-2.62-2.72-4.25-.66-1.63-.99-3.38-.99-5.26s.33-3.67,.99-5.3c.66-1.63,1.57-3.04,2.72-4.25,1.15-1.2,2.51-2.15,4.09-2.84,1.57-.69,3.28-1.03,5.1-1.03h1.67c-1.32,.42-2.55,1.07-3.69,1.95-1.14,.87-2.12,1.91-2.94,3.1-.82,1.19-1.46,2.5-1.93,3.93-.46,1.43-.69,2.91-.69,4.45Zm19.65,0c0,1.54-.22,2.98-.66,4.35-.44,1.36-1.06,2.61-1.87,3.73-.81,1.13-1.78,2.09-2.92,2.9-1.14,.81-2.41,1.42-3.81,1.85-1.27-.56-2.46-1.25-3.55-2.08-1.1-.83-2.07-1.82-2.92-2.96,.45,.29,.93,.46,1.45,.5,.52,.04,1.07,.06,1.65,.06,1.11,0,2.16-.21,3.16-.64,.99-.42,1.85-1.01,2.58-1.77,.73-.75,1.3-1.63,1.73-2.64,.42-1.01,.64-2.1,.64-3.3,0-1.27-.21-2.43-.64-3.49-.42-1.06-1-1.97-1.73-2.74-.73-.77-1.59-1.36-2.58-1.79-.99-.42-2.04-.64-3.16-.64-.58,0-1.13,.06-1.65,.18-.52,.12-1,.25-1.45,.38,.85-1.11,1.87-2.04,3.06-2.8s2.42-1.41,3.69-1.97c1.32,.42,2.53,1.04,3.63,1.85,1.1,.81,2.04,1.77,2.84,2.9,.79,1.13,1.41,2.38,1.85,3.75,.44,1.38,.66,2.83,.66,4.37Z"/>
          <path class="cls-12" d="M271.3,43.1c.95,.13,1.84,.45,2.66,.95,.82,.5,1.57,1.1,2.26,1.79v20.45h-4.92v-23.19Zm15.72-.87c.56,.45,1.01,1.11,1.37,1.99s.54,1.79,.54,2.74c0,1.03-.16,2.04-.48,3.04-.32,.99-.78,1.88-1.39,2.66-.61,.78-1.37,1.4-2.28,1.87-.91,.46-1.98,.7-3.2,.7h-.5c-.25,0-.52-.02-.81-.06-.29-.04-.55-.09-.77-.16-.23-.07-.34-.17-.34-.3v-4.41c0,.08,.07,.15,.2,.2,.13,.05,.28,.11,.46,.16,.17,.05,.35,.1,.54,.14,.18,.04,.33,.06,.44,.06,.56,.05,1.08,0,1.57-.18,.49-.17,.93-.43,1.31-.77,.38-.34,.68-.75,.89-1.21,.21-.46,.32-.95,.32-1.45,0-.93-.38-1.75-1.13-2.46-.75-.71-1.81-1.07-3.16-1.07-.53,0-1.01,.08-1.43,.24-.08,0-.24,.04-.48,.12-.24,.08-.48,.18-.73,.3-.25,.12-.48,.24-.69,.36-.21,.12-.32,.22-.32,.3l.04,.04c-.26-.26-.59-.55-.97-.85-.38-.3-.79-.59-1.23-.85-.44-.26-.89-.5-1.35-.69-.46-.2-.89-.34-1.29-.42,.4-.4,.89-.76,1.47-1.09,.58-.33,1.21-.62,1.89-.85,.67-.24,1.38-.42,2.12-.54,.74-.12,1.48-.18,2.22-.18,1.32,0,2.61,.21,3.87,.62,1.26,.41,2.36,1.09,3.32,2.04Zm3.65,22.91c.05,.05,.15,.16,.28,.32,.13,.16,.29,.32,.48,.48,.18,.19,.41,.4,.67,.64h-4.8c-.53-.42-1.01-.85-1.45-1.27-.44-.42-.76-.91-.97-1.47-.24-.69-.39-1.32-.46-1.89-.07-.57-.1-1.13-.1-1.69s-.08-1.14-.24-1.75c-.16-.61-.45-1.06-.87-1.35-.13-.13-.29-.24-.48-.34-.19-.09-.38-.24-.6-.46,1.69,0,3.24-.56,4.65-1.67,.56,.37,.99,.81,1.31,1.33,.32,.52,.56,1.07,.71,1.67,.16,.6,.26,1.2,.32,1.83,.05,.62,.08,1.22,.08,1.81,0,.42,.03,.79,.08,1.09,.05,.3,.14,.6,.26,.87,.12,.28,.27,.56,.46,.85,.18,.29,.41,.62,.67,.99Z"/>
          <path class="cls-35" d="M295.28,42.98c1.11,.13,2.09,.45,2.94,.95,.85,.5,1.61,1.1,2.3,1.79v20.69h-5.24v-23.42Zm14.89-1.07c.4,.4,.81,.97,1.25,1.73s.66,1.56,.66,2.4c0,1.11-.19,2.14-.56,3.08-.37,.94-.87,1.75-1.49,2.44-.62,.69-1.35,1.22-2.18,1.61-.83,.38-1.71,.58-2.64,.58-.61,0-1.17-.05-1.69-.16-.52-.11-.79-.24-.81-.4v-4.13c0,.11,.09,.19,.26,.26,.17,.07,.38,.12,.62,.16,.24,.04,.48,.06,.73,.06h.62c.4-.03,.79-.11,1.19-.24,.4-.13,.75-.32,1.07-.58,.32-.25,.57-.56,.75-.93,.19-.37,.28-.81,.28-1.31,0-.95-.4-1.75-1.19-2.38-.79-.64-1.87-.94-3.22-.91-.48,0-1.03,.1-1.67,.3-.64,.2-1.1,.48-1.39,.85l.04,.04c-.56-.56-1.27-1.07-2.14-1.55-.87-.48-1.73-.78-2.58-.91,1.19-.82,2.35-1.43,3.47-1.83,1.12-.4,2.44-.6,3.95-.6,1.19,0,2.36,.19,3.51,.58,1.15,.38,2.2,1,3.16,1.85Zm1.63,11c.56,.56,1.02,1.23,1.39,2.02,.37,.79,.56,1.68,.56,2.66,0,1.16-.2,2.28-.6,3.34-.4,1.06-.95,2-1.67,2.82-.71,.82-1.56,1.47-2.54,1.95-.98,.48-2.04,.71-3.18,.71-.08,0-.26,0-.56-.02-.29-.01-.6-.05-.93-.1-.33-.05-.63-.13-.89-.24-.26-.11-.4-.26-.4-.48v-4.41c.53,.13,1,.21,1.41,.24,.41,.03,.8,.04,1.17,.04,.56,0,1.06-.1,1.51-.3,.45-.2,.84-.47,1.17-.81,.33-.34,.58-.73,.75-1.17,.17-.44,.26-.88,.26-1.33,0-.4-.09-.77-.26-1.13-.17-.36-.39-.68-.65-.95-.26-.28-.56-.5-.87-.68-.32-.17-.62-.26-.91-.26,1.09-.16,2.08-.52,2.98-1.07,.37-.24,.69-.5,.95-.77,.26-.28,.44-.51,.52-.69,.08,.05,.17,.12,.28,.2,.08,.05,.16,.13,.26,.22,.09,.09,.18,.17,.26,.22Z"/>
          <path class="cls-36" d="M334.39,66.37l-1.91-7.07c-.37,.19-.83,.36-1.37,.54-.54,.17-1.13,.26-1.77,.26-.48,0-.9-.05-1.27-.14-.37-.09-.69-.2-.95-.34-.29-.13-.57-.29-.83-.48l.87-3.93c.19,.08,.38,.15,.6,.2,.19,.05,.4,.09,.66,.12,.25,.03,.52,.04,.81,.04,.26,0,.62-.04,1.05-.12,.44-.08,.79-.25,1.05-.52l-3.1-10.56-6.11,22h-5.56l7.23-23.98c.26-.5,.62-.97,1.07-1.39,.37-.34,.83-.66,1.39-.95,.56-.29,1.22-.44,1.99-.44s1.44,.15,2.01,.44c.57,.29,1.04,.61,1.41,.95,.42,.42,.78,.89,1.07,1.39l7.27,23.98h-5.6Z"/>
          <path class="cls-6" d="M356.64,52.79c1,.77,1.81,1.65,2.43,2.66,.62,1.01,.93,2.18,.93,3.53,0,1.24-.24,2.29-.71,3.14-.48,.85-1.06,1.54-1.76,2.08-.7,.54-1.46,.97-2.28,1.27-.82,.3-1.58,.52-2.28,.66-.7,.13-1.27,.21-1.72,.24-.45,.03-.66,.04-.63,.04,.51-.56,1-1.19,1.48-1.91,.37-.61,.75-1.36,1.12-2.26,.37-.9,.63-1.91,.76-3.02,0-.77-.3-1.4-.91-1.89-.61-.49-1.36-.95-2.24-1.37-.89-.42-1.83-.85-2.82-1.27-.99-.42-1.87-.95-2.64-1.59-.85-.69-1.59-1.53-2.22-2.54-.64-1.01-.95-2.1-.95-3.3,0-1.3,.22-2.39,.68-3.28,.45-.89,1.02-1.61,1.71-2.18,.69-.57,1.44-1.01,2.24-1.31,.81-.3,1.56-.53,2.26-.67,.7-.15,1.3-.22,1.81-.24,.5-.01,.78-.02,.83-.02,.03,0-.13,.17-.48,.52-.34,.34-.72,.83-1.13,1.45-.41,.62-.79,1.38-1.15,2.26-.36,.89-.54,1.86-.54,2.92,0,.71,.29,1.32,.87,1.81,.58,.49,1.29,.95,2.14,1.39,.84,.44,1.74,.88,2.69,1.33,.95,.45,1.79,.97,2.53,1.55Zm-6.9,8.81h1.07c.34,0,.73-.07,1.15-.2-.42,1.11-.92,2.08-1.5,2.92-.58,.83-1.1,1.53-1.54,2.08-.53-.05-.96-.1-1.29-.14s-.71-.11-1.13-.22c-.55-.13-1.02-.26-1.41-.4-.38-.13-.71-.26-.99-.4-.28-.13-.53-.26-.75-.4-.23-.13-.47-.26-.73-.4,.4-.69,.78-1.39,1.15-2.1,.37-.71,.62-1.51,.75-2.38,.69,.45,1.48,.83,2.38,1.15,.9,.32,1.85,.48,2.85,.48Zm2.5-17.35c-.29,0-.62,.01-.99,.04-.37,.03-.78,.12-1.23,.28,.45-1.27,.97-2.32,1.55-3.14,.58-.82,1.08-1.44,1.51-1.87,.42,0,.91,.03,1.47,.1,.56,.07,1.12,.18,1.71,.34,.58,.16,1.14,.36,1.69,.6,.54,.24,1.04,.53,1.49,.87-.42,.56-.77,1.22-1.05,2.01-.28,.78-.56,1.59-.85,2.44-.71-.42-1.52-.81-2.42-1.15-.9-.34-1.85-.52-2.86-.52Z"/>
        </g>
        <g>
          <path class="cls-3" d="M119.36,50.69c.13,.72,.19,1.48,.18,2.28-.01,.8-.17,1.55-.46,2.24h-10.6v11.12h-5v-25.57c1.99,.84,3.65,2.21,5,4.11v5.81h10.88Z"/>
          <path class="cls-15" d="M119.36,39.61c.26,1.43,.26,2.83,0,4.21h-9.73c-.42-.34-.86-.72-1.31-1.13-.45-.41-.91-.81-1.39-1.19-.48-.38-.96-.74-1.45-1.07-.49-.33-.97-.6-1.45-.81h15.33Z"/>
        </g>
        <path class="cls-2" d="M137.9,66.37l-1.91-7.07c-.37,.19-.83,.36-1.37,.54-.54,.17-1.13,.26-1.77,.26-.48,0-.9-.05-1.27-.14-.37-.09-.69-.2-.95-.34-.29-.13-.57-.29-.83-.48l.87-3.93c.18,.08,.38,.15,.6,.2,.18,.05,.4,.09,.65,.12,.25,.03,.52,.04,.81,.04,.26,0,.62-.04,1.05-.12,.44-.08,.79-.25,1.05-.52l-3.1-10.56-6.11,22h-5.56l7.23-23.98c.26-.5,.62-.97,1.07-1.39,.37-.34,.83-.66,1.39-.95,.56-.29,1.22-.44,1.99-.44s1.44,.15,2,.44c.57,.29,1.04,.61,1.41,.95,.42,.42,.78,.89,1.07,1.39l7.27,23.98h-5.6Z"/>
        <g>
          <path class="cls-4" d="M161.57,53.86v11.2l-10.2-20.72,1.39,22.11h-5.68v-24.02c.29-.5,.65-.97,1.07-1.39,.37-.37,.81-.7,1.33-.99,.52-.29,1.14-.44,1.89-.44s1.44,.15,2.01,.44c.57,.29,1.04,.62,1.41,.99,.45,.42,.82,.89,1.11,1.39l5.68,11.43Z"/>
          <path class="cls-32" d="M162.68,43.5v22.95h5.12v-23.74c0-.45-.17-.93-.52-1.45-.34-.52-.74-.88-1.19-1.09-.56-.24-1.13-.39-1.71-.46-.58-.07-1.15-.1-1.71-.1v3.89Z"/>
        </g>
        <g>
          <path class="cls-8" d="M187.37,53.86v11.2l-10.2-20.72,1.39,22.11h-5.68v-24.02c.29-.5,.65-.97,1.07-1.39,.37-.37,.81-.7,1.33-.99,.52-.29,1.14-.44,1.89-.44s1.44,.15,2.01,.44c.57,.29,1.04,.62,1.41,.99,.45,.42,.82,.89,1.11,1.39l5.68,11.43Z"/>
          <path class="cls-17" d="M188.49,43.5v22.95h5.12v-23.74c0-.45-.17-.93-.52-1.45-.34-.52-.74-.88-1.19-1.09-.56-.24-1.13-.39-1.71-.46-.58-.07-1.15-.1-1.71-.1v3.89Z"/>
        </g>
        <path class="cls-24" d="M204.13,39.69v26.72h-5.44v-23.74c0-1.01,.51-1.75,1.53-2.24,1.02-.49,2.32-.73,3.91-.73Z"/>
        <g>
          <path class="cls-31" d="M220.29,42.98c1.11,.13,2.09,.45,2.94,.95,.85,.5,1.61,1.1,2.3,1.79v20.69h-5.24v-23.42Z"/>
          <path class="cls-22" d="M235.18,41.91c.4,.4,.81,.97,1.25,1.73s.66,1.56,.66,2.4c0,1.11-.19,2.14-.56,3.08-.37,.94-.87,1.75-1.49,2.44-.62,.69-1.35,1.22-2.18,1.61-.83,.38-1.71,.58-2.64,.58-.61,0-1.17-.05-1.69-.16-.52-.11-.79-.24-.81-.4v-4.13c0,.11,.09,.19,.26,.26,.17,.07,.38,.12,.62,.16,.24,.04,.48,.06,.73,.06h.62c.4-.03,.79-.11,1.19-.24,.4-.13,.75-.32,1.07-.58,.32-.25,.57-.56,.75-.93,.19-.37,.28-.81,.28-1.31,0-.95-.4-1.75-1.19-2.38-.79-.64-1.87-.94-3.22-.91-.48,0-1.03,.1-1.67,.3-.64,.2-1.1,.48-1.39,.85l.04,.04c-.56-.56-1.27-1.07-2.14-1.55-.87-.48-1.73-.78-2.58-.91,1.19-.82,2.35-1.43,3.47-1.83,1.12-.4,2.44-.6,3.95-.6,1.19,0,2.36,.19,3.51,.58,1.15,.38,2.2,1,3.16,1.85Z"/>
          <path class="cls-18" d="M236.8,52.91c.56,.56,1.02,1.23,1.39,2.02,.37,.79,.56,1.68,.56,2.66,0,1.16-.2,2.28-.6,3.34-.4,1.06-.95,2-1.67,2.82-.71,.82-1.56,1.47-2.54,1.95-.98,.48-2.04,.71-3.18,.71-.08,0-.26,0-.56-.02-.29-.01-.6-.05-.93-.1-.33-.05-.63-.13-.89-.24-.26-.11-.4-.26-.4-.48v-4.41c.53,.13,1,.21,1.41,.24,.41,.03,.8,.04,1.17,.04,.56,0,1.06-.1,1.51-.3,.45-.2,.84-.47,1.17-.81,.33-.34,.58-.73,.75-1.17,.17-.44,.26-.88,.26-1.33,0-.4-.09-.77-.26-1.13-.17-.36-.39-.68-.65-.95-.26-.28-.56-.5-.87-.68-.32-.17-.62-.26-.91-.26,1.09-.16,2.08-.52,2.98-1.07,.37-.24,.69-.5,.95-.77,.26-.28,.44-.51,.52-.69,.08,.05,.17,.12,.28,.2,.08,.05,.16,.13,.26,.22,.09,.09,.18,.17,.26,.22Z"/>
        </g>
        <g>
          <path class="cls-37" d="M247.6,52.87c0,1.59,.23,3.1,.69,4.55,.46,1.44,1.1,2.75,1.93,3.91,.82,1.17,1.8,2.17,2.94,3.02,1.14,.85,2.37,1.48,3.69,1.91h-1.67c-1.83,0-3.53-.34-5.1-1.03-1.57-.69-2.94-1.63-4.09-2.84-1.15-1.2-2.06-2.62-2.72-4.25-.66-1.63-.99-3.38-.99-5.26s.33-3.67,.99-5.3c.66-1.63,1.57-3.04,2.72-4.25,1.15-1.2,2.51-2.15,4.09-2.84,1.57-.69,3.28-1.03,5.1-1.03h1.67c-1.32,.42-2.55,1.07-3.69,1.95-1.14,.87-2.12,1.91-2.94,3.1-.82,1.19-1.46,2.5-1.93,3.93-.46,1.43-.69,2.91-.69,4.45Z"/>
          <path class="cls-27" d="M267.25,52.87c0,1.54-.22,2.98-.66,4.35-.44,1.36-1.06,2.61-1.87,3.73-.81,1.13-1.78,2.09-2.92,2.9-1.14,.81-2.41,1.42-3.81,1.85-1.27-.56-2.46-1.25-3.55-2.08-1.1-.83-2.07-1.82-2.92-2.96,.45,.29,.93,.46,1.45,.5,.52,.04,1.07,.06,1.65,.06,1.11,0,2.16-.21,3.16-.64,.99-.42,1.85-1.01,2.58-1.77,.73-.75,1.3-1.63,1.73-2.64,.42-1.01,.64-2.1,.64-3.3,0-1.27-.21-2.43-.64-3.49-.42-1.06-1-1.97-1.73-2.74-.73-.77-1.59-1.36-2.58-1.79-.99-.42-2.04-.64-3.16-.64-.58,0-1.13,.06-1.65,.18-.52,.12-1,.25-1.45,.38,.85-1.11,1.87-2.04,3.06-2.8s2.42-1.41,3.69-1.97c1.32,.42,2.53,1.04,3.63,1.85,1.1,.81,2.04,1.77,2.84,2.9,.79,1.13,1.41,2.38,1.85,3.75,.44,1.38,.66,2.83,.66,4.37Z"/>
        </g>
        <g>
          <path class="cls-5" d="M271.3,43.1c.95,.13,1.84,.45,2.66,.95,.82,.5,1.57,1.1,2.26,1.79v20.45h-4.92v-23.19Z"/>
          <path class="cls-29" d="M287.03,42.23c.56,.45,1.01,1.11,1.37,1.99s.54,1.79,.54,2.74c0,1.03-.16,2.04-.48,3.04-.32,.99-.78,1.88-1.39,2.66-.61,.78-1.37,1.4-2.28,1.87-.91,.46-1.98,.7-3.2,.7h-.5c-.25,0-.52-.02-.81-.06-.29-.04-.55-.09-.77-.16-.23-.07-.34-.17-.34-.3v-4.41c0,.08,.07,.15,.2,.2,.13,.05,.28,.11,.46,.16,.17,.05,.35,.1,.54,.14,.18,.04,.33,.06,.44,.06,.56,.05,1.08,0,1.57-.18,.49-.17,.93-.43,1.31-.77,.38-.34,.68-.75,.89-1.21,.21-.46,.32-.95,.32-1.45,0-.93-.38-1.75-1.13-2.46-.75-.71-1.81-1.07-3.16-1.07-.53,0-1.01,.08-1.43,.24-.08,0-.24,.04-.48,.12-.24,.08-.48,.18-.73,.3-.25,.12-.48,.24-.69,.36-.21,.12-.32,.22-.32,.3l.04,.04c-.26-.26-.59-.55-.97-.85-.38-.3-.79-.59-1.23-.85-.44-.26-.89-.5-1.35-.69-.46-.2-.89-.34-1.29-.42,.4-.4,.89-.76,1.47-1.09,.58-.33,1.21-.62,1.89-.85,.67-.24,1.38-.42,2.12-.54,.74-.12,1.48-.18,2.22-.18,1.32,0,2.61,.21,3.87,.62,1.26,.41,2.36,1.09,3.32,2.04Z"/>
          <path class="cls-30" d="M290.68,65.14c.05,.05,.15,.16,.28,.32,.13,.16,.29,.32,.48,.48,.18,.19,.41,.4,.67,.64h-4.8c-.53-.42-1.01-.85-1.45-1.27-.44-.42-.76-.91-.97-1.47-.24-.69-.39-1.32-.46-1.89-.07-.57-.1-1.13-.1-1.69s-.08-1.14-.24-1.75c-.16-.61-.45-1.06-.87-1.35-.13-.13-.29-.24-.48-.34-.19-.09-.38-.24-.6-.46,1.69,0,3.24-.56,4.65-1.67,.56,.37,.99,.81,1.31,1.33,.32,.52,.56,1.07,.71,1.67,.16,.6,.26,1.2,.32,1.83,.05,.62,.08,1.22,.08,1.81,0,.42,.03,.79,.08,1.09,.05,.3,.14,.6,.26,.87,.12,.28,.27,.56,.46,.85,.18,.29,.41,.62,.67,.99Z"/>
        </g>
      </g>
      <g>
        <path class="cls-16" d="M295.28,42.98c1.11,.13,2.09,.45,2.94,.95,.85,.5,1.61,1.1,2.3,1.79v20.69h-5.24v-23.42Z"/>
        <path class="cls-11" d="M310.17,41.91c.4,.4,.81,.97,1.25,1.73s.66,1.56,.66,2.4c0,1.11-.19,2.14-.56,3.08-.37,.94-.87,1.75-1.49,2.44-.62,.69-1.35,1.22-2.18,1.61-.83,.38-1.71,.58-2.64,.58-.61,0-1.17-.05-1.69-.16-.52-.11-.79-.24-.81-.4v-4.13c0,.11,.09,.19,.26,.26,.17,.07,.38,.12,.62,.16,.24,.04,.48,.06,.73,.06h.62c.4-.03,.79-.11,1.19-.24,.4-.13,.75-.32,1.07-.58,.32-.25,.57-.56,.75-.93,.19-.37,.28-.81,.28-1.31,0-.95-.4-1.75-1.19-2.38-.79-.64-1.87-.94-3.22-.91-.48,0-1.03,.1-1.67,.3-.64,.2-1.1,.48-1.39,.85l.04,.04c-.56-.56-1.27-1.07-2.14-1.55-.87-.48-1.73-.78-2.58-.91,1.19-.82,2.35-1.43,3.47-1.83,1.12-.4,2.44-.6,3.95-.6,1.19,0,2.36,.19,3.51,.58,1.15,.38,2.2,1,3.16,1.85Z"/>
        <path class="cls-28" d="M311.8,52.91c.56,.56,1.02,1.23,1.39,2.02,.37,.79,.56,1.68,.56,2.66,0,1.16-.2,2.28-.6,3.34-.4,1.06-.95,2-1.67,2.82-.71,.82-1.56,1.47-2.54,1.95-.98,.48-2.04,.71-3.18,.71-.08,0-.26,0-.56-.02-.29-.01-.6-.05-.93-.1-.33-.05-.63-.13-.89-.24-.26-.11-.4-.26-.4-.48v-4.41c.53,.13,1,.21,1.41,.24,.41,.03,.8,.04,1.17,.04,.56,0,1.06-.1,1.51-.3,.45-.2,.84-.47,1.17-.81,.33-.34,.58-.73,.75-1.17,.17-.44,.26-.88,.26-1.33,0-.4-.09-.77-.26-1.13-.17-.36-.39-.68-.65-.95-.26-.28-.56-.5-.87-.68-.32-.17-.62-.26-.91-.26,1.09-.16,2.08-.52,2.98-1.07,.37-.24,.69-.5,.95-.77,.26-.28,.44-.51,.52-.69,.08,.05,.17,.12,.28,.2,.08,.05,.16,.13,.26,.22,.09,.09,.18,.17,.26,.22Z"/>
      </g>
      <path class="cls-20" d="M334.39,66.37l-1.91-7.07c-.37,.19-.83,.36-1.37,.54-.54,.17-1.13,.26-1.77,.26-.48,0-.9-.05-1.27-.14-.37-.09-.69-.2-.95-.34-.29-.13-.57-.29-.83-.48l.87-3.93c.19,.08,.38,.15,.6,.2,.19,.05,.4,.09,.66,.12,.25,.03,.52,.04,.81,.04,.26,0,.62-.04,1.05-.12,.44-.08,.79-.25,1.05-.52l-3.1-10.56-6.11,22h-5.56l7.23-23.98c.26-.5,.62-.97,1.07-1.39,.37-.34,.83-.66,1.39-.95,.56-.29,1.22-.44,1.99-.44s1.44,.15,2.01,.44c.57,.29,1.04,.61,1.41,.95,.42,.42,.78,.89,1.07,1.39l7.27,23.98h-5.6Z"/>
      <g>
        <path class="cls-10" d="M356.64,52.79c1,.77,1.81,1.65,2.43,2.66,.62,1.01,.93,2.18,.93,3.53,0,1.24-.24,2.29-.71,3.14-.48,.85-1.06,1.54-1.76,2.08-.7,.54-1.46,.97-2.28,1.27-.82,.3-1.58,.52-2.28,.66-.7,.13-1.27,.21-1.72,.24-.45,.03-.66,.04-.63,.04,.51-.56,1-1.19,1.48-1.91,.37-.61,.75-1.36,1.12-2.26,.37-.9,.63-1.91,.76-3.02,0-.77-.3-1.4-.91-1.89-.61-.49-1.36-.95-2.24-1.37-.89-.42-1.83-.85-2.82-1.27-.99-.42-1.87-.95-2.64-1.59-.85-.69-1.59-1.53-2.22-2.54-.64-1.01-.95-2.1-.95-3.3,0-1.3,.22-2.39,.68-3.28,.45-.89,1.02-1.61,1.71-2.18,.69-.57,1.44-1.01,2.24-1.31,.81-.3,1.56-.53,2.26-.67,.7-.15,1.3-.22,1.81-.24,.5-.01,.78-.02,.83-.02,.03,0-.13,.17-.48,.52-.34,.34-.72,.83-1.13,1.45-.41,.62-.79,1.38-1.15,2.26-.36,.89-.54,1.86-.54,2.92,0,.71,.29,1.32,.87,1.81,.58,.49,1.29,.95,2.14,1.39,.84,.44,1.74,.88,2.69,1.33,.95,.45,1.79,.97,2.53,1.55Z"/>
        <path class="cls-7" d="M349.74,61.6h1.07c.34,0,.73-.07,1.15-.2-.42,1.11-.92,2.08-1.5,2.92-.58,.83-1.1,1.53-1.54,2.08-.53-.05-.96-.1-1.29-.14s-.71-.11-1.13-.22c-.55-.13-1.02-.26-1.41-.4-.38-.13-.71-.26-.99-.4-.28-.13-.53-.26-.75-.4-.23-.13-.47-.26-.73-.4,.4-.69,.78-1.39,1.15-2.1,.37-.71,.62-1.51,.75-2.38,.69,.45,1.48,.83,2.38,1.15,.9,.32,1.85,.48,2.85,.48Z"/>
        <path class="cls-14" d="M352.24,44.25c-.29,0-.62,.01-.99,.04-.37,.03-.78,.12-1.23,.28,.45-1.27,.97-2.32,1.55-3.14,.58-.82,1.08-1.44,1.51-1.87,.42,0,.91,.03,1.47,.1,.56,.07,1.12,.18,1.71,.34,.58,.16,1.14,.36,1.69,.6,.54,.24,1.04,.53,1.49,.87-.42,.56-.77,1.22-1.05,2.01-.28,.78-.56,1.59-.85,2.44-.71-.42-1.52-.81-2.42-1.15-.9-.34-1.85-.52-2.86-.52Z"/>
      </g>
    </g>
  </g>
</svg>