<?xml version="1.0" encoding="UTF-8"?>
<svg id="logo_test_egybe" data-name="logo test egybe" xmlns="http://www.w3.org/2000/svg" xmlns:xlink="http://www.w3.org/1999/xlink" viewBox="0 0 512 512">
  <defs>
    <style>
      .cls-1 {
        fill: url(#linear-gradient-2);
      }

      .cls-2 {
        fill: url(#linear-gradient-3);
      }

      .cls-3 {
        fill: url(#linear-gradient);
      }
    </style>
    <linearGradient id="linear-gradient" x1="112" y1="255.46" x2="442.58" y2="255.46" gradientUnits="userSpaceOnUse">
      <stop offset="0" stop-color="#37acd9"/>
      <stop offset=".17" stop-color="#23c9c7"/>
      <stop offset=".34" stop-color="#13e1ba"/>
      <stop offset=".53" stop-color="#08f1b0"/>
      <stop offset=".74" stop-color="#02fbaa"/>
      <stop offset="1" stop-color="#00ffa9"/>
    </linearGradient>
    <linearGradient id="linear-gradient-2" x1="142.35" y1="99.56" x2="384.98" y2="240.08" gradientUnits="userSpaceOnUse">
      <stop offset="0" stop-color="#bb55ba"/>
      <stop offset=".17" stop-color="#af5cbd"/>
      <stop offset=".46" stop-color="#9070c5"/>
      <stop offset=".86" stop-color="#5d91d2"/>
      <stop offset="1" stop-color="#4a9ed8"/>
    </linearGradient>
    <linearGradient id="linear-gradient-3" x1="106.2" y1="255.46" x2="427.77" y2="255.46" gradientUnits="userSpaceOnUse">
      <stop offset="0" stop-color="#37acd9"/>
      <stop offset=".28" stop-color="#20cdc5"/>
      <stop offset=".56" stop-color="#0ee8b5"/>
      <stop offset=".81" stop-color="#03f9ac"/>
      <stop offset="1" stop-color="#00ffa9"/>
    </linearGradient>
  </defs>
  <path class="cls-3" d="M424.12,233.93l-50.48-30.89c3.12,27.68-25.51,42.11-16.01,59.75,1.47,6.41-9.06,18.53-17.31,23.78l-142.7,86.41c-7.83,4.98-17.77,2.15-17.77-7.13,0,0,0-206.46,1.36-207.68-20.36-82.65-69.21-115.22-69.21-115.22V440.01c0,18.47,35.99,34.91,51.57,24.99l259.66-161.14c25.41-16.18,25.88-53.1,.9-69.93Z"/>
  <path class="cls-1" d="M348.74,259.5c.31,.21,2.24,1.03,4.35,1.93,0-.52-.02-1.02-.13-1.48-9.84-18.34,19.87-30.91,16.89-59.59,0,0-157.42-95-232.06-143.85,39.36,50.21,48.86,101.78,48.86,101.78l162.1,101.21Z"/>
  <path id="csupazold_logo" data-name="csupazold logo" class="cls-2" d="M424.12,233.93l-32.56-19.92s0-.05,0-.07c0,0-5.37-3.25-14.62-8.88l-3.3-2.02s0,0,0,.01c-47.21-28.72-175.59-107.09-235.86-146.54,39.36,50.21,48.86,101.78,48.86,101.78l162.1,101.21c.17,.11,4.55,3.2,8.86,6.15-1.29,6.68-10.13,16.37-17.27,20.91l-142.7,86.41c-7.83,4.98-17.77,2.15-17.77-7.13,0,0,0-206.46,1.36-207.68-20.36-82.65-69.21-115.22-69.21-115.22V440.01c0,18.47,35.99,34.91,51.57,24.99l259.66-161.14c25.41-16.18,25.88-53.1,.9-69.93Z"/>
  <path id="logo_zold_also" data-name="logo zold also" class="cls-3" d="M424.12,233.93l-50.48-30.89c3.12,27.68-25.51,42.11-16.01,59.75,1.47,6.41-9.06,18.53-17.31,23.78l-142.7,86.41c-7.83,4.98-17.77,2.15-17.77-7.13,0,0,0-206.46,1.36-207.68-20.36-82.65-69.21-115.22-69.21-115.22V440.01c0,18.47,35.99,34.91,51.57,24.99l259.66-161.14c25.41-16.18,25.88-53.1,.9-69.93Z"/>
  <path id="logo_lila" data-name="logo lila" class="cls-1" d="M348.74,259.5c.31,.21,2.24,1.03,4.35,1.93,0-.52-.02-1.02-.13-1.48-9.84-18.34,19.87-30.91,16.89-59.59,0,0-157.42-95-232.06-143.85,39.36,50.21,48.86,101.78,48.86,101.78l162.1,101.21Z"/>
</svg>