<?xml version="1.0" encoding="UTF-8"?>
<svg id="Layer_2" data-name="Layer 2" xmlns="http://www.w3.org/2000/svg" viewBox="0 0 60.13 55.11">
  <defs>
    <style>
      .cls-1 {
        fill: #6d6d6d;
      }
    </style>
  </defs>
  <g id="Layer_5" data-name="Layer 5">
    <path class="cls-1" d="M5.01,0C2.24,0,0,2.24,0,5.01V25.05c0,2.77,2.24,5.01,5.01,5.01H15.14c.06,4.48-.38,14.06-4.71,21.18,0,0,0,0,0,0-.66,1.02-.5,2.36,.39,3.19,.88,.83,2.24,.91,3.21,.19,0,0,11.02-8.41,11.02-24.56V5.01c0-2.77-2.24-5.01-5.01-5.01H5.01ZM40.09,0c-2.77,0-5.01,2.24-5.01,5.01V25.05c0,2.77,2.24,5.01,5.01,5.01h10.12c.06,4.48-.38,14.06-4.71,21.18h0c-.66,1.02-.5,2.36,.39,3.19,.88,.83,2.24,.91,3.21,.19,0,0,11.02-8.41,11.02-24.56V5.01c0-2.77-2.24-5.01-5.01-5.01h-15.03Z"/>
  </g>
</svg>