<?xml version="1.0" encoding="UTF-8"?>
<svg id="Layer_2" data-name="Layer 2" xmlns="http://www.w3.org/2000/svg" viewBox="0 0 66.4 66.4">
  <defs>
    <style>
      .cls-1 {
        fill: #6d6d6d;
      }

      .cls-2 {
        fill: #f2f2f2;
      }
    </style>
  </defs>
  <g id="Layer_5" data-name="Layer 5">
    <g>
      <circle class="cls-1" cx="33.2" cy="33.2" r="33.2"/>
      <path class="cls-2" d="M33.32,13.55c-7.56,0-13.72,6.16-13.72,13.72,0,2.17,.85,4.58,2.02,7.24,1.17,2.65,2.69,5.49,4.21,8.11,3.04,5.24,6.08,9.63,6.08,9.63l1.41,2.04,1.41-2.04s3.03-4.39,6.08-9.63c1.52-2.62,3.05-5.46,4.21-8.11,1.17-2.65,2.02-5.06,2.02-7.24,0-7.56-6.16-13.72-13.72-13.72Zm0,17.15c-1.89,0-3.43-1.54-3.43-3.43s1.54-3.43,3.43-3.43,3.43,1.54,3.43,3.43-1.54,3.43-3.43,3.43Z"/>
    </g>
  </g>
</svg>