<?xml version="1.0" encoding="UTF-8"?>
<svg id="Layer_2" data-name="Layer 2" xmlns="http://www.w3.org/2000/svg" viewBox="0 0 66.4 66.4">
  <defs>
    <style>
      .cls-1 {
        fill: #6d6d6d;
      }

      .cls-2 {
        fill: #f2f2f2;
      }
    </style>
  </defs>
  <g id="Layer_5" data-name="Layer 5">
    <g>
      <circle class="cls-1" cx="33.2" cy="33.2" r="33.2"/>
      <path class="cls-2" d="M52.37,22.69l-18.95,25.7c-.45,.61-1.12,1.01-1.87,1.11-.75,.1-1.5-.11-2.09-.58l-13.53-10.82c-.57-.46-.94-1.13-1.02-1.86-.08-.73,.14-1.47,.6-2.04,.96-1.16,2.66-1.34,3.85-.41l11.29,9.02,17.26-23.43c.91-1.21,2.62-1.47,3.85-.58,.6,.43,1.01,1.09,1.12,1.82,.11,.73-.07,1.48-.51,2.08Z"/>
    </g>
  </g>
</svg>