<?xml version="1.0" encoding="UTF-8"?>
<svg id="Layer_2" data-name="Layer 2" xmlns="http://www.w3.org/2000/svg" viewBox="0 0 66.4 66.4">
  <defs>
    <style>
      .cls-1 {
        fill: #6d6d6d;
      }

      .cls-2 {
        fill: #f2f2f2;
      }
    </style>
  </defs>
  <g id="Layer_5" data-name="Layer 5">
    <g>
      <circle class="cls-1" cx="33.2" cy="33.2" r="33.2"/>
      <path class="cls-2" d="M41.42,38.06c-.58-.34-1.3-.33-1.88,.01l-2.94,1.75c-.66,.39-1.48,.35-2.08-.12-1.04-.81-2.72-2.18-4.18-3.64-1.46-1.46-2.83-3.14-3.64-4.18-.47-.6-.52-1.42-.12-2.08l1.75-2.94c.35-.58,.35-1.3,0-1.88l-4.31-7.36c-.42-.71-1.25-1.06-2.05-.87-.78,.19-1.79,.65-2.85,1.71-3.32,3.32-5.08,8.92,7.4,21.41,12.49,12.49,18.09,10.73,21.41,7.4,1.06-1.06,1.52-2.08,1.71-2.86,.19-.8-.15-1.62-.86-2.04-1.77-1.04-5.6-3.28-7.37-4.32Z"/>
    </g>
  </g>
</svg>