<?xml version="1.0" encoding="UTF-8"?>
<svg id="Layer_2" data-name="Layer 2" xmlns="http://www.w3.org/2000/svg" viewBox="0 0 66.4 66.4">
  <defs>
    <style>
      .cls-1 {
        fill: #6d6d6d;
      }

      .cls-2 {
        fill: #f2f2f2;
      }
    </style>
  </defs>
  <g id="Layer_5" data-name="Layer 5">
    <g>
      <circle class="cls-1" cx="33.2" cy="33.2" r="33.2"/>
      <path class="cls-2" d="M51.18,42.88c0,2.29-1.86,4.15-4.15,4.15H19.37c-2.29,0-4.15-1.86-4.15-4.15v-13.11c0-.25,.14-.48,.36-.61,.22-.12,.5-.12,.72,0l13.61,8.52c.98,.65,2.12,1.01,3.29,1.05,1.17,0,2.32-.33,3.32-.94l13.61-8.52c.21-.12,.48-.12,.69,0,.22,.13,.35,.36,.36,.61v13Z"/>
      <path class="cls-2" d="M51.18,23.68l-16.79,10.51c-.67,.41-1.52,.41-2.19,0L15.33,23.68c-.02-.05-.02-.11,0-.17,0-2.25,1.79-4.09,4.04-4.15h27.67c2.29,0,4.15,1.86,4.15,4.15,0,.07-.02,.13-.08,.17h.08Z"/>
    </g>
  </g>
</svg>