<?xml version="1.0" encoding="UTF-8"?>
<svg id="Layer_2" data-name="Layer 2" xmlns="http://www.w3.org/2000/svg" viewBox="0 0 66.4 66.4">
  <defs>
    <style>
      .cls-1 {
        fill: #6d6d6d;
      }

      .cls-2 {
        fill: #f2f2f2;
      }
    </style>
  </defs>
  <g id="Layer_5" data-name="Layer 5">
    <g>
      <circle class="cls-1" cx="33.2" cy="33.2" r="33.2"/>
      <path class="cls-2" d="M22.4,18.37c2.15,0,3.59,1.44,3.59,3.35s-1.44,3.35-3.83,3.35c-2.15,0-3.59-1.44-3.59-3.35s1.44-3.35,3.83-3.35Zm3.85,29.67h-7.68V27.57h7.68v20.47Zm25.58,0h-7.22v-11.19c0-3.09-1.93-3.81-2.65-3.81s-3.13,.48-3.13,3.81v11.19h-7.46V27.57h7.47v2.86c.96-1.67,2.89-2.86,6.5-2.86s6.5,2.86,6.5,9.28v11.19Z"/>
    </g>
  </g>
</svg>