<?xml version="1.0" encoding="UTF-8"?>
<svg id="Layer_2" data-name="Layer 2" xmlns="http://www.w3.org/2000/svg" viewBox="0 0 66.4 66.4">
  <defs>
    <style>
      .cls-1 {
        fill: #6d6d6d;
      }

      .cls-2 {
        fill: #f2f2f2;
      }
    </style>
  </defs>
  <g id="Layer_5" data-name="Layer 5">
    <g>
      <circle class="cls-1" cx="33.2" cy="33.2" r="33.2"/>
      <g>
        <path class="cls-2" d="M34.2,28.6c.04-1.2-.31-2.39-.99-3.39-1.36-1.64-3.43-2.53-5.56-2.37h-9.71c-.41,0-.74,.33-.74,.74v20.69c0,.41,.33,.74,.74,.74h9c1.03,0,2.05-.09,3.06-.3,.89-.2,1.73-.6,2.44-1.18,.6-.48,1.1-1.07,1.48-1.74,.65-1.06,.98-2.29,.96-3.53,.03-1.14-.26-2.27-.84-3.25-.6-.85-1.45-1.49-2.44-1.82,.63-.31,1.19-.74,1.66-1.26,.7-.97,1.03-2.15,.95-3.34Zm-12.56-.58c0-.41,.33-.74,.74-.74h5.17c1.22,0,2.22,.99,2.22,2.22s-.99,2.22-2.22,2.22h-5.17c-.41,0-.74-.33-.74-.74v-2.96Zm8.87,9.61c0,1.63-1.32,2.96-2.96,2.96h-5.17c-.41,0-.74-.33-.74-.74v-4.43c0-.41,.33-.74,.74-.74h5.17c1.63,0,2.96,1.32,2.96,2.96Z"/>
        <rect class="cls-2" x="39.37" y="21.37" width="8.87" height="2.96" rx=".74" ry=".74"/>
        <path class="cls-2" d="M50.46,37.63c.19,0,.38-.07,.52-.21,.14-.14,.22-.33,.22-.53,.01-.82-.03-1.63-.13-2.44-.16-1.18-.59-2.32-1.26-3.31-.65-1.04-1.59-1.86-2.71-2.38-1.02-.51-2.15-.77-3.3-.74-2.19-.06-4.31,.73-5.91,2.22-1.55,1.75-2.35,4.05-2.22,6.39-.23,2.4,.66,4.77,2.39,6.43,1.63,1.3,3.65,2,5.74,1.97,2.26,.12,4.47-.73,6.06-2.34,.28-.33,.53-.64,.75-.95,.15-.23,.17-.52,.04-.76-.13-.24-.38-.39-.66-.39h-3.03c-.19,0-.38,.08-.52,.21l-.09,.09c-.79,.52-1.73,.78-2.68,.74-.8,.03-1.58-.19-2.26-.61-.84-.58-1.38-1.5-1.48-2.51-.04-.22,.02-.44,.16-.61,.14-.17,.34-.27,.56-.27h9.79Zm-9.65-2.96c-.19,0-.37-.09-.49-.25-.12-.15-.16-.35-.12-.54,.38-1.69,1.88-2.89,3.61-2.89s3.23,1.2,3.61,2.89c.04,.19,0,.38-.12,.54-.12,.15-.3,.24-.49,.25h-6Z"/>
      </g>
    </g>
  </g>
</svg>